{"glyphs":{"0":{"ha":844,"x_min":121,"x_max":723,"o":"m 603 723 l 241 723 l 241 844 l 603 844 l 603 723 m 241 362 l 362 362 l 362 241 l 241 241 l 241 121 l 121 121 l 121 723 l 241 723 l 241 362 m 362 482 l 482 482 l 482 362 l 362 362 l 362 482 m 603 603 l 603 723 l 723 723 l 723 121 l 603 121 l 603 482 l 482 482 l 482 603 l 603 603 m 603 121 l 603 0 l 241 0 l 241 121 l 603 121 z "},"1":{"ha":603,"x_min":121,"x_max":482,"o":"m 121 723 l 241 723 l 241 844 l 362 844 l 362 121 l 482 121 l 482 0 l 121 0 l 121 121 l 241 121 l 241 603 l 121 603 l 121 723 z "},"2":{"ha":844,"x_min":121,"x_max":723,"o":"m 362 241 l 362 362 l 482 362 l 482 241 l 362 241 m 362 241 l 362 121 l 723 121 l 723 0 l 121 0 l 121 121 l 241 121 l 241 241 l 362 241 m 482 362 l 482 482 l 603 482 l 603 362 l 482 362 m 241 723 l 241 844 l 603 844 l 603 723 l 241 723 m 241 723 l 241 482 l 121 482 l 121 723 l 241 723 m 603 723 l 723 723 l 723 482 l 603 482 l 603 723 z "},"3":{"ha":844,"x_min":121,"x_max":723,"o":"m 241 723 l 241 844 l 603 844 l 603 723 l 241 723 m 241 723 l 241 482 l 121 482 l 121 723 l 241 723 m 603 723 l 723 723 l 723 482 l 603 482 l 603 723 m 603 482 l 603 362 l 362 362 l 362 482 l 603 482 m 603 362 l 723 362 l 723 121 l 603 121 l 603 362 m 603 121 l 603 0 l 241 0 l 241 121 l 603 121 m 241 121 l 121 121 l 121 362 l 241 362 l 241 121 z "},"4":{"ha":844,"x_min":121,"x_max":723,"o":"m 362 482 l 362 603 l 482 603 l 482 482 l 362 482 m 603 723 l 603 844 l 723 844 l 723 0 l 603 0 l 603 121 l 121 121 l 121 362 l 241 362 l 241 241 l 603 241 l 603 603 l 482 603 l 482 723 l 603 723 m 241 362 l 241 482 l 362 482 l 362 362 l 241 362 z "},"5":{"ha":844,"x_min":121,"x_max":723,"o":"m 241 121 l 603 121 l 603 0 l 241 0 l 241 121 m 241 121 l 121 121 l 121 362 l 241 362 l 241 121 m 603 121 l 603 482 l 723 482 l 723 121 l 603 121 m 603 482 l 121 482 l 121 844 l 723 844 l 723 723 l 241 723 l 241 603 l 603 603 l 603 482 z "},"6":{"ha":844,"x_min":121,"x_max":723,"o":"m 603 723 l 241 723 l 241 844 l 603 844 l 603 723 m 603 362 l 723 362 l 723 121 l 603 121 l 603 362 m 603 121 l 603 0 l 241 0 l 241 121 l 603 121 m 241 121 l 121 121 l 121 723 l 241 723 l 241 482 l 603 482 l 603 362 l 241 362 l 241 121 m 603 723 l 723 723 l 723 603 l 603 603 l 603 723 z "},"7":{"ha":844,"x_min":121,"x_max":723,"o":"m 482 362 l 482 603 l 603 603 l 603 362 l 482 362 m 482 362 l 482 0 l 362 0 l 362 362 l 482 362 m 603 603 l 603 723 l 121 723 l 121 844 l 723 844 l 723 603 l 603 603 z "},"8":{"ha":844,"x_min":121,"x_max":723,"o":"m 241 362 l 241 482 l 603 482 l 603 362 l 241 362 m 241 0 l 241 121 l 603 121 l 603 0 l 241 0 m 241 723 l 241 844 l 603 844 l 603 723 l 241 723 m 603 362 l 723 362 l 723 121 l 603 121 l 603 362 m 241 121 l 121 121 l 121 362 l 241 362 l 241 121 m 241 482 l 121 482 l 121 723 l 241 723 l 241 482 m 603 723 l 723 723 l 723 482 l 603 482 l 603 723 z "},"9":{"ha":844,"x_min":121,"x_max":723,"o":"m 241 121 l 603 121 l 603 0 l 241 0 l 241 121 m 241 482 l 121 482 l 121 723 l 241 723 l 241 482 m 241 723 l 241 844 l 603 844 l 603 723 l 241 723 m 603 723 l 723 723 l 723 121 l 603 121 l 603 362 l 241 362 l 241 482 l 603 482 l 603 723 m 241 121 l 121 121 l 121 241 l 241 241 l 241 121 z "}," ":{"ha":482,"x_min":0,"x_max":0,"o":""},"!":{"ha":362,"x_min":121,"x_max":241,"o":"m 241 0 l 121 0 l 121 121 l 241 121 l 241 0 m 241 241 l 121 241 l 121 844 l 241 844 l 241 241 z "},"\"":{"ha":844,"x_min":121,"x_max":723,"o":"m 603 603 l 603 482 l 482 482 l 482 603 l 603 603 m 603 603 l 603 844 l 723 844 l 723 603 l 603 603 m 241 603 l 241 482 l 121 482 l 121 603 l 241 603 m 241 603 l 241 844 l 362 844 l 362 603 l 241 603 z "},"#":{"ha":965,"x_min":121,"x_max":844,"o":"m 603 241 l 603 482 l 362 482 l 362 241 l 603 241 m 723 482 l 723 241 l 844 241 l 844 121 l 723 121 l 723 0 l 603 0 l 603 121 l 362 121 l 362 0 l 241 0 l 241 121 l 121 121 l 121 241 l 241 241 l 241 482 l 121 482 l 121 603 l 241 603 l 241 723 l 362 723 l 362 603 l 603 603 l 603 723 l 723 723 l 723 603 l 844 603 l 844 482 l 723 482 z "},"$":{"ha":844,"x_min":121,"x_max":723,"o":"m 241 603 l 241 482 l 121 482 l 121 603 l 241 603 m 241 603 l 241 723 l 362 723 l 362 844 l 482 844 l 482 723 l 723 723 l 723 603 l 241 603 m 241 482 l 603 482 l 603 362 l 241 362 l 241 482 m 603 362 l 723 362 l 723 241 l 603 241 l 603 362 m 603 241 l 603 121 l 482 121 l 482 0 l 362 0 l 362 121 l 121 121 l 121 241 l 603 241 z "},"%":{"ha":965,"x_min":121,"x_max":844,"o":"m 241 121 l 241 241 l 362 241 l 362 121 l 241 121 m 241 121 l 241 0 l 121 0 l 121 121 l 241 121 m 362 241 l 362 362 l 482 362 l 482 241 l 362 241 m 723 603 l 723 482 l 603 482 l 603 603 l 723 603 m 723 603 l 723 723 l 844 723 l 844 603 l 723 603 m 603 482 l 603 362 l 482 362 l 482 482 l 603 482 m 844 0 l 603 0 l 603 241 l 844 241 l 844 0 m 362 482 l 121 482 l 121 723 l 362 723 l 362 482 z "},"&":{"ha":844,"x_min":121,"x_max":723,"o":"m 241 121 l 121 121 l 121 362 l 241 362 l 241 121 m 241 723 l 241 482 l 121 482 l 121 723 l 241 723 m 603 723 l 723 723 l 723 482 l 603 482 l 603 723 m 603 723 l 241 723 l 241 844 l 603 844 l 603 723 m 241 362 l 241 482 l 482 482 l 482 362 l 241 362 m 241 121 l 603 121 l 603 362 l 723 362 l 723 0 l 241 0 l 241 121 z "},"'":{"ha":482,"x_min":121,"x_max":362,"o":"m 241 603 l 241 482 l 121 482 l 121 603 l 241 603 m 241 603 l 241 844 l 362 844 l 362 603 l 241 603 z "},"(":{"ha":603,"x_min":121,"x_max":482,"o":"m 362 121 l 241 121 l 241 241 l 362 241 l 362 121 m 362 723 l 362 844 l 482 844 l 482 723 l 362 723 m 241 603 l 241 723 l 362 723 l 362 603 l 241 603 m 241 241 l 121 241 l 121 603 l 241 603 l 241 241 m 362 121 l 482 121 l 482 0 l 362 0 l 362 121 z "},")":{"ha":603,"x_min":121,"x_max":482,"o":"m 241 121 l 241 241 l 362 241 l 362 121 l 241 121 m 241 723 l 121 723 l 121 844 l 241 844 l 241 723 m 362 603 l 241 603 l 241 723 l 362 723 l 362 603 m 362 241 l 362 603 l 482 603 l 482 241 l 362 241 m 241 121 l 241 0 l 121 0 l 121 121 l 241 121 z "},"*":{"ha":1085,"x_min":121,"x_max":965,"o":"m 723 603 l 723 723 l 844 723 l 844 603 l 723 603 m 362 603 l 241 603 l 241 723 l 362 723 l 362 603 m 362 241 l 362 121 l 241 121 l 241 241 l 362 241 m 603 482 l 603 603 l 723 603 l 723 482 l 965 482 l 965 362 l 723 362 l 723 241 l 603 241 l 603 362 l 482 362 l 482 241 l 362 241 l 362 362 l 121 362 l 121 482 l 362 482 l 362 603 l 482 603 l 482 482 l 603 482 m 723 241 l 844 241 l 844 121 l 723 121 l 723 241 z "},"+":{"ha":844,"x_min":121,"x_max":723,"o":"m 121 362 l 121 482 l 362 482 l 362 723 l 482 723 l 482 482 l 723 482 l 723 362 l 482 362 l 482 121 l 362 121 l 362 362 l 121 362 z "},",":{"ha":482,"x_min":121,"x_max":362,"o":"m 241 0 l 241 -121 l 121 -121 l 121 0 l 241 0 m 241 0 l 241 241 l 362 241 l 362 0 l 241 0 z "},"-":{"ha":723,"x_min":121,"x_max":603,"o":"m 121 362 l 121 482 l 603 482 l 603 362 l 121 362 z "},".":{"ha":362,"x_min":121,"x_max":241,"o":"m 241 0 l 121 0 l 121 121 l 241 121 l 241 0 z "},"/":{"ha":723,"x_min":121,"x_max":603,"o":"m 241 121 l 241 362 l 362 362 l 362 121 l 241 121 m 241 121 l 241 -121 l 121 -121 l 121 121 l 241 121 m 362 362 l 362 603 l 482 603 l 482 362 l 362 362 m 482 603 l 482 844 l 603 844 l 603 603 l 482 603 z "},":":{"ha":362,"x_min":121,"x_max":241,"o":"m 241 0 l 121 0 l 121 121 l 241 121 l 241 0 m 241 482 l 121 482 l 121 603 l 241 603 l 241 482 z "},";":{"ha":482,"x_min":121,"x_max":362,"o":"m 241 0 l 241 -121 l 121 -121 l 121 0 l 241 0 m 241 0 l 241 241 l 362 241 l 362 0 l 241 0 m 362 482 l 241 482 l 241 603 l 362 603 l 362 482 z "},"<":{"ha":723,"x_min":121,"x_max":603,"o":"m 482 121 l 362 121 l 362 241 l 482 241 l 482 121 m 482 121 l 603 121 l 603 0 l 482 0 l 482 121 m 362 241 l 241 241 l 241 362 l 362 362 l 362 241 m 241 362 l 121 362 l 121 482 l 241 482 l 241 362 m 241 482 l 241 603 l 362 603 l 362 482 l 241 482 m 362 603 l 362 723 l 482 723 l 482 603 l 362 603 m 482 723 l 482 844 l 603 844 l 603 723 l 482 723 z "},"=":{"ha":844,"x_min":121,"x_max":723,"o":"m 121 241 l 121 362 l 723 362 l 723 241 l 121 241 m 121 482 l 121 603 l 723 603 l 723 482 l 121 482 z "},">":{"ha":723,"x_min":121,"x_max":603,"o":"m 241 241 l 362 241 l 362 121 l 241 121 l 241 241 m 121 723 l 121 844 l 241 844 l 241 723 l 121 723 m 241 603 l 241 723 l 362 723 l 362 603 l 241 603 m 362 482 l 362 603 l 482 603 l 482 482 l 362 482 m 482 482 l 603 482 l 603 362 l 482 362 l 482 482 m 362 362 l 482 362 l 482 241 l 362 241 l 362 362 m 241 0 l 121 0 l 121 121 l 241 121 l 241 0 z "},"?":{"ha":844,"x_min":121,"x_max":723,"o":"m 241 723 l 241 844 l 603 844 l 603 723 l 241 723 m 482 241 l 362 241 l 362 362 l 482 362 l 482 241 m 241 723 l 241 482 l 121 482 l 121 723 l 241 723 m 603 723 l 723 723 l 723 482 l 603 482 l 603 723 m 603 482 l 603 362 l 482 362 l 482 482 l 603 482 m 362 0 l 241 0 l 241 121 l 362 121 l 362 0 z "},"@":{"ha":965,"x_min":121,"x_max":844,"o":"m 723 723 l 241 723 l 241 844 l 723 844 l 723 723 m 241 723 l 241 0 l 121 0 l 121 723 l 241 723 m 241 0 l 844 0 l 844 -121 l 241 -121 l 241 0 m 482 241 l 362 241 l 362 482 l 482 482 l 482 241 m 723 482 l 482 482 l 482 603 l 723 603 l 723 723 l 844 723 l 844 121 l 482 121 l 482 241 l 723 241 l 723 482 z "},"A":{"ha":844,"x_min":121,"x_max":723,"o":"m 241 723 l 241 844 l 603 844 l 603 723 l 241 723 m 723 723 l 723 0 l 603 0 l 603 241 l 241 241 l 241 0 l 121 0 l 121 723 l 241 723 l 241 362 l 603 362 l 603 723 l 723 723 z "},"B":{"ha":844,"x_min":121,"x_max":723,"o":"m 603 482 l 603 362 l 241 362 l 241 121 l 603 121 l 603 0 l 121 0 l 121 844 l 603 844 l 603 723 l 241 723 l 241 482 l 603 482 m 723 362 l 723 121 l 603 121 l 603 362 l 723 362 m 603 723 l 723 723 l 723 482 l 603 482 l 603 723 z "},"C":{"ha":844,"x_min":121,"x_max":723,"o":"m 603 723 l 241 723 l 241 844 l 603 844 l 603 723 m 603 723 l 723 723 l 723 482 l 603 482 l 603 723 m 241 723 l 241 121 l 121 121 l 121 723 l 241 723 m 241 121 l 603 121 l 603 0 l 241 0 l 241 121 m 603 121 l 603 362 l 723 362 l 723 121 l 603 121 z "},"D":{"ha":844,"x_min":121,"x_max":723,"o":"m 603 121 l 603 0 l 121 0 l 121 844 l 603 844 l 603 723 l 241 723 l 241 121 l 603 121 m 603 723 l 723 723 l 723 121 l 603 121 l 603 723 z "},"E":{"ha":844,"x_min":121,"x_max":723,"o":"m 241 121 l 723 121 l 723 0 l 121 0 l 121 844 l 723 844 l 723 723 l 241 723 l 241 482 l 603 482 l 603 362 l 241 362 l 241 121 z "},"F":{"ha":844,"x_min":121,"x_max":723,"o":"m 241 482 l 603 482 l 603 362 l 241 362 l 241 0 l 121 0 l 121 844 l 723 844 l 723 723 l 241 723 l 241 482 z "},"G":{"ha":844,"x_min":121,"x_max":723,"o":"m 603 121 l 603 0 l 241 0 l 241 121 l 603 121 m 603 121 l 603 241 l 482 241 l 482 362 l 723 362 l 723 121 l 603 121 m 241 121 l 121 121 l 121 723 l 241 723 l 241 121 m 241 723 l 241 844 l 603 844 l 603 723 l 241 723 m 603 723 l 723 723 l 723 482 l 603 482 l 603 723 z "},"H":{"ha":844,"x_min":121,"x_max":723,"o":"m 241 362 l 241 0 l 121 0 l 121 844 l 241 844 l 241 482 l 603 482 l 603 844 l 723 844 l 723 0 l 603 0 l 603 362 l 241 362 z "},"I":{"ha":603,"x_min":121,"x_max":482,"o":"m 241 723 l 121 723 l 121 844 l 482 844 l 482 723 l 362 723 l 362 121 l 482 121 l 482 0 l 121 0 l 121 121 l 241 121 l 241 723 z "},"J":{"ha":844,"x_min":121,"x_max":723,"o":"m 241 121 l 603 121 l 603 0 l 241 0 l 241 121 m 241 121 l 121 121 l 121 362 l 241 362 l 241 121 m 603 121 l 603 723 l 482 723 l 482 844 l 723 844 l 723 121 l 603 121 z "},"K":{"ha":844,"x_min":121,"x_max":723,"o":"m 482 603 l 482 482 l 362 482 l 362 603 l 482 603 m 362 362 l 241 362 l 241 0 l 121 0 l 121 844 l 241 844 l 241 482 l 362 482 l 362 362 m 482 241 l 362 241 l 362 362 l 482 362 l 482 241 m 603 121 l 482 121 l 482 241 l 603 241 l 603 121 m 723 0 l 603 0 l 603 121 l 723 121 l 723 0 m 603 603 l 482 603 l 482 723 l 603 723 l 603 603 m 723 723 l 603 723 l 603 844 l 723 844 l 723 723 z "},"L":{"ha":844,"x_min":121,"x_max":723,"o":"m 241 121 l 723 121 l 723 0 l 121 0 l 121 844 l 241 844 l 241 121 z "},"M":{"ha":1085,"x_min":121,"x_max":965,"o":"m 603 482 l 603 362 l 482 362 l 482 482 l 603 482 m 362 603 l 482 603 l 482 482 l 362 482 l 362 603 m 241 0 l 121 0 l 121 844 l 241 844 l 241 723 l 362 723 l 362 603 l 241 603 l 241 0 m 723 482 l 603 482 l 603 603 l 723 603 l 723 482 m 723 603 l 723 723 l 844 723 l 844 844 l 965 844 l 965 0 l 844 0 l 844 603 l 723 603 z "},"N":{"ha":844,"x_min":121,"x_max":723,"o":"m 362 482 l 482 482 l 482 362 l 362 362 l 362 482 m 241 482 l 241 0 l 121 0 l 121 844 l 241 844 l 241 603 l 362 603 l 362 482 l 241 482 m 603 362 l 603 844 l 723 844 l 723 0 l 603 0 l 603 241 l 482 241 l 482 362 l 603 362 z "},"O":{"ha":844,"x_min":121,"x_max":723,"o":"m 603 723 l 723 723 l 723 121 l 603 121 l 603 723 m 121 723 l 241 723 l 241 121 l 121 121 l 121 723 m 603 121 l 603 0 l 241 0 l 241 121 l 603 121 m 241 723 l 241 844 l 603 844 l 603 723 l 241 723 z "},"P":{"ha":844,"x_min":121,"x_max":723,"o":"m 603 362 l 603 241 l 241 241 l 241 0 l 121 0 l 121 844 l 603 844 l 603 723 l 241 723 l 241 362 l 603 362 m 603 723 l 723 723 l 723 362 l 603 362 l 603 723 z "},"Q":{"ha":844,"x_min":121,"x_max":844,"o":"m 603 723 l 723 723 l 723 121 l 603 121 l 603 723 m 121 723 l 241 723 l 241 121 l 121 121 l 121 723 m 603 0 l 844 0 l 844 -121 l 603 -121 l 603 0 m 603 121 l 603 0 l 241 0 l 241 121 l 603 121 m 241 723 l 241 844 l 603 844 l 603 723 l 241 723 z "},"R":{"ha":844,"x_min":121,"x_max":723,"o":"m 603 362 l 603 241 l 241 241 l 241 0 l 121 0 l 121 844 l 603 844 l 603 723 l 241 723 l 241 362 l 603 362 m 603 241 l 723 241 l 723 0 l 603 0 l 603 241 m 603 723 l 723 723 l 723 362 l 603 362 l 603 723 z "},"S":{"ha":844,"x_min":121,"x_max":723,"o":"m 241 121 l 603 121 l 603 0 l 241 0 l 241 121 m 241 121 l 121 121 l 121 241 l 241 241 l 241 121 m 603 121 l 603 362 l 723 362 l 723 121 l 603 121 m 603 362 l 241 362 l 241 482 l 603 482 l 603 362 m 241 482 l 121 482 l 121 723 l 241 723 l 241 482 m 241 723 l 241 844 l 603 844 l 603 723 l 241 723 m 603 723 l 723 723 l 723 603 l 603 603 l 603 723 z "},"T":{"ha":844,"x_min":121,"x_max":723,"o":"m 362 723 l 121 723 l 121 844 l 723 844 l 723 723 l 482 723 l 482 0 l 362 0 l 362 723 z "},"U":{"ha":844,"x_min":121,"x_max":723,"o":"m 603 121 l 603 0 l 241 0 l 241 121 l 603 121 m 603 121 l 603 844 l 723 844 l 723 121 l 603 121 m 241 121 l 121 121 l 121 844 l 241 844 l 241 121 z "},"V":{"ha":844,"x_min":121,"x_max":723,"o":"m 121 844 l 241 844 l 241 241 l 121 241 l 121 844 m 603 844 l 723 844 l 723 241 l 603 241 l 603 844 m 362 121 l 241 121 l 241 241 l 362 241 l 362 121 m 603 121 l 482 121 l 482 241 l 603 241 l 603 121 m 482 0 l 362 0 l 362 121 l 482 121 l 482 0 z "},"W":{"ha":1085,"x_min":121,"x_max":965,"o":"m 844 241 l 844 844 l 965 844 l 965 241 l 844 241 m 603 482 l 482 482 l 482 723 l 603 723 l 603 482 m 723 241 l 603 241 l 603 482 l 723 482 l 723 241 m 482 241 l 362 241 l 362 482 l 482 482 l 482 241 m 723 241 l 844 241 l 844 0 l 723 0 l 723 241 m 362 0 l 241 0 l 241 241 l 362 241 l 362 0 m 241 241 l 121 241 l 121 844 l 241 844 l 241 241 z "},"X":{"ha":844,"x_min":121,"x_max":723,"o":"m 603 241 l 482 241 l 482 362 l 603 362 l 603 241 m 362 241 l 241 241 l 241 362 l 362 362 l 362 241 m 121 241 l 241 241 l 241 0 l 121 0 l 121 241 m 603 241 l 723 241 l 723 0 l 603 0 l 603 241 m 482 362 l 362 362 l 362 482 l 482 482 l 482 362 m 603 482 l 482 482 l 482 603 l 603 603 l 603 482 m 362 482 l 241 482 l 241 603 l 362 603 l 362 482 m 603 844 l 723 844 l 723 603 l 603 603 l 603 844 m 241 603 l 121 603 l 121 844 l 241 844 l 241 603 z "},"Y":{"ha":844,"x_min":121,"x_max":723,"o":"m 121 844 l 241 844 l 241 482 l 121 482 l 121 844 m 603 844 l 723 844 l 723 482 l 603 482 l 603 844 m 362 362 l 241 362 l 241 482 l 362 482 l 362 362 m 603 362 l 482 362 l 482 482 l 603 482 l 603 362 m 482 0 l 362 0 l 362 362 l 482 362 l 482 0 z "},"Z":{"ha":844,"x_min":121,"x_max":723,"o":"m 362 241 l 241 241 l 241 362 l 362 362 l 362 241 m 121 241 l 241 241 l 241 121 l 723 121 l 723 0 l 121 0 l 121 241 m 482 362 l 362 362 l 362 482 l 482 482 l 482 362 m 603 482 l 482 482 l 482 603 l 603 603 l 603 482 m 723 844 l 723 603 l 603 603 l 603 723 l 121 723 l 121 844 l 723 844 z "},"[":{"ha":603,"x_min":121,"x_max":482,"o":"m 241 121 l 482 121 l 482 0 l 121 0 l 121 844 l 482 844 l 482 723 l 241 723 l 241 121 z "},"\\":{"ha":723,"x_min":121,"x_max":603,"o":"m 362 121 l 362 362 l 482 362 l 482 121 l 362 121 m 603 121 l 603 -121 l 482 -121 l 482 121 l 603 121 m 241 362 l 241 603 l 362 603 l 362 362 l 241 362 m 121 603 l 121 844 l 241 844 l 241 603 l 121 603 z "},"]":{"ha":603,"x_min":121,"x_max":482,"o":"m 362 723 l 121 723 l 121 844 l 482 844 l 482 0 l 121 0 l 121 121 l 362 121 l 362 723 z "},"^":{"ha":844,"x_min":121,"x_max":723,"o":"m 603 603 l 482 603 l 482 723 l 603 723 l 603 603 m 482 723 l 362 723 l 362 844 l 482 844 l 482 723 m 241 482 l 121 482 l 121 603 l 241 603 l 241 482 m 603 603 l 723 603 l 723 482 l 603 482 l 603 603 m 362 603 l 241 603 l 241 723 l 362 723 l 362 603 z "},"_":{"ha":482,"x_min":0,"x_max":482,"o":"m 0 -121 l 0 0 l 482 0 l 482 -121 l 0 -121 z "},"`":{"ha":482,"x_min":121,"x_max":362,"o":"m 241 723 l 362 723 l 362 603 l 241 603 l 241 723 m 241 723 l 121 723 l 121 844 l 241 844 l 241 723 z "},"a":{"ha":844,"x_min":121,"x_max":723,"o":"m 603 482 l 241 482 l 241 603 l 603 603 l 603 482 m 603 241 l 241 241 l 241 362 l 603 362 l 603 482 l 723 482 l 723 0 l 241 0 l 241 121 l 603 121 l 603 241 m 241 121 l 121 121 l 121 241 l 241 241 l 241 121 z "},"b":{"ha":844,"x_min":121,"x_max":723,"o":"m 603 121 l 723 121 l 723 482 l 603 482 l 603 121 m 603 121 l 603 0 l 121 0 l 121 844 l 241 844 l 241 603 l 603 603 l 603 482 l 241 482 l 241 121 l 603 121 z "},"c":{"ha":844,"x_min":121,"x_max":723,"o":"m 603 482 l 241 482 l 241 603 l 603 603 l 603 482 m 603 482 l 723 482 l 723 362 l 603 362 l 603 482 m 241 482 l 241 121 l 121 121 l 121 482 l 241 482 m 241 121 l 603 121 l 603 0 l 241 0 l 241 121 m 603 121 l 603 241 l 723 241 l 723 121 l 603 121 z "},"d":{"ha":844,"x_min":121,"x_max":723,"o":"m 241 482 l 121 482 l 121 121 l 241 121 l 241 482 m 603 121 l 603 482 l 241 482 l 241 603 l 603 603 l 603 844 l 723 844 l 723 0 l 241 0 l 241 121 l 603 121 z "},"e":{"ha":844,"x_min":121,"x_max":723,"o":"m 241 482 l 241 603 l 603 603 l 603 482 l 241 482 m 241 0 l 241 121 l 603 121 l 603 0 l 241 0 m 603 482 l 723 482 l 723 241 l 241 241 l 241 121 l 121 121 l 121 482 l 241 482 l 241 362 l 603 362 l 603 482 z "},"f":{"ha":723,"x_min":121,"x_max":603,"o":"m 362 723 l 362 603 l 603 603 l 603 482 l 362 482 l 362 0 l 241 0 l 241 482 l 121 482 l 121 603 l 241 603 l 241 723 l 362 723 m 362 723 l 362 844 l 603 844 l 603 723 l 362 723 z "},"g":{"ha":844,"x_min":121,"x_max":723,"o":"m 241 241 l 121 241 l 121 482 l 241 482 l 241 241 m 603 121 l 241 121 l 241 241 l 603 241 l 603 482 l 241 482 l 241 603 l 723 603 l 723 0 l 603 0 l 603 121 m 603 -121 l 241 -121 l 241 0 l 602 0 l 603 -121 z "},"h":{"ha":844,"x_min":121,"x_max":723,"o":"m 603 0 l 723 0 l 723 482 l 603 482 l 603 0 m 121 0 l 121 844 l 241 844 l 241 603 l 603 603 l 603 482 l 241 482 l 241 0 l 121 0 z "},"i":{"ha":603,"x_min":121,"x_max":482,"o":"m 241 482 l 121 482 l 121 603 l 362 603 l 362 121 l 482 121 l 482 0 l 121 0 l 121 121 l 241 121 l 241 482 m 362 844 l 362 723 l 241 723 l 241 844 l 362 844 z "},"j":{"ha":844,"x_min":121,"x_max":723,"o":"m 241 0 l 603 0 l 603 -121 l 241 -121 l 241 0 m 241 0 l 121 0 l 121 241 l 241 241 l 241 0 m 603 0 l 603 482 l 482 482 l 482 603 l 723 603 l 723 0 l 603 0 m 723 844 l 723 723 l 603 723 l 603 844 l 723 844 z "},"k":{"ha":844,"x_min":121,"x_max":723,"o":"m 603 482 l 603 362 l 482 362 l 482 482 l 603 482 m 603 482 l 603 603 l 723 603 l 723 482 l 603 482 m 603 121 l 482 121 l 482 241 l 603 241 l 603 121 m 603 121 l 723 121 l 723 0 l 603 0 l 603 121 m 482 241 l 241 241 l 241 0 l 121 0 l 121 844 l 241 844 l 241 362 l 482 362 l 482 241 z "},"l":{"ha":603,"x_min":121,"x_max":482,"o":"m 241 723 l 121 723 l 121 844 l 362 844 l 362 121 l 482 121 l 482 0 l 121 0 l 121 121 l 241 121 l 241 723 z "},"m":{"ha":1085,"x_min":121,"x_max":965,"o":"m 844 482 l 965 482 l 965 0 l 844 0 l 844 482 m 844 482 l 603 482 l 603 603 l 844 603 l 844 482 m 482 482 l 241 482 l 241 0 l 121 0 l 121 603 l 482 603 l 482 482 m 482 482 l 603 482 l 603 0 l 482 0 l 482 482 z "},"n":{"ha":844,"x_min":121,"x_max":723,"o":"m 603 0 l 723 0 l 723 482 l 603 482 l 603 0 m 121 0 l 121 603 l 603 603 l 603 482 l 241 482 l 241 0 l 121 0 z "},"o":{"ha":844,"x_min":121,"x_max":723,"o":"m 603 482 l 723 482 l 723 121 l 603 121 l 603 482 m 121 482 l 241 482 l 241 121 l 121 121 l 121 482 m 603 121 l 603 0 l 241 0 l 241 121 l 603 121 m 241 482 l 241 603 l 603 603 l 603 482 l 241 482 z "},"p":{"ha":844,"x_min":121,"x_max":723,"o":"m 603 241 l 603 121 l 241 121 l 241 -121 l 121 -121 l 121 603 l 603 603 l 603 482 l 241 482 l 241 241 l 603 241 m 603 482 l 723 482 l 723 241 l 603 241 l 603 482 z "},"q":{"ha":844,"x_min":121,"x_max":723,"o":"m 603 241 l 603 482 l 241 482 l 241 603 l 723 603 l 723 -121 l 603 -121 l 603 121 l 241 121 l 241 241 l 603 241 m 241 241 l 121 241 l 121 482 l 241 482 l 241 241 z "},"r":{"ha":844,"x_min":121,"x_max":723,"o":"m 603 241 l 723 241 l 723 482 l 603 482 l 603 241 m 121 0 l 121 603 l 603 603 l 603 482 l 241 482 l 241 0 l 121 0 z "},"s":{"ha":844,"x_min":121,"x_max":723,"o":"m 241 482 l 241 362 l 121 362 l 121 482 l 241 482 m 241 482 l 241 603 l 723 603 l 723 482 l 241 482 m 241 362 l 603 362 l 603 241 l 241 241 l 241 362 m 603 241 l 723 241 l 723 121 l 603 121 l 603 241 m 603 121 l 603 0 l 121 0 l 121 121 l 603 121 z "},"t":{"ha":723,"x_min":121,"x_max":603,"o":"m 241 121 l 241 482 l 121 482 l 121 603 l 241 603 l 241 844 l 362 844 l 362 603 l 603 603 l 603 482 l 362 482 l 362 121 l 241 121 m 603 121 l 603 0 l 362 0 l 362 121 l 603 121 z "},"u":{"ha":844,"x_min":121,"x_max":723,"o":"m 241 603 l 121 603 l 121 121 l 241 121 l 241 603 m 723 603 l 723 0 l 241 0 l 241 121 l 603 121 l 603 603 l 723 603 z "},"v":{"ha":844,"x_min":121,"x_max":723,"o":"m 121 603 l 241 603 l 241 241 l 121 241 l 121 603 m 603 603 l 723 603 l 723 241 l 603 241 l 603 603 m 362 121 l 241 121 l 241 241 l 362 241 l 362 121 m 603 121 l 482 121 l 482 241 l 603 241 l 603 121 m 482 0 l 362 0 l 362 121 l 482 121 l 482 0 z "},"w":{"ha":1085,"x_min":121,"x_max":965,"o":"m 844 121 l 844 0 l 603 0 l 603 121 l 844 121 m 844 121 l 844 603 l 965 603 l 965 121 l 844 121 m 241 121 l 482 121 l 482 0 l 241 0 l 241 121 m 241 121 l 121 121 l 121 603 l 241 603 l 241 121 m 603 121 l 482 121 l 482 482 l 603 482 l 603 121 z "},"x":{"ha":844,"x_min":121,"x_max":723,"o":"m 362 362 l 482 362 l 482 241 l 362 241 l 362 362 m 362 362 l 241 362 l 241 482 l 362 482 l 362 362 m 362 241 l 362 121 l 241 121 l 241 241 l 362 241 m 482 241 l 603 241 l 603 121 l 482 121 l 482 241 m 482 362 l 482 482 l 603 482 l 603 362 l 482 362 m 241 482 l 121 482 l 121 603 l 241 603 l 241 482 m 603 482 l 603 603 l 723 603 l 723 482 l 603 482 m 603 121 l 723 121 l 723 0 l 603 0 l 603 121 m 241 121 l 241 0 l 121 0 l 121 121 l 241 121 z "},"y":{"ha":844,"x_min":121,"x_max":723,"o":"m 241 241 l 121 241 l 121 603 l 241 603 l 241 241 m 603 -121 l 241 -121 l 241 0 l 602 0 l 603 -121 m 603 121 l 241 121 l 241 241 l 603 241 l 603 603 l 723 603 l 723 0 l 603 0 l 603 121 z "},"z":{"ha":844,"x_min":121,"x_max":723,"o":"m 241 121 l 241 241 l 362 241 l 362 121 l 723 121 l 723 0 l 121 0 l 121 121 l 241 121 m 482 241 l 362 241 l 362 362 l 482 362 l 482 241 m 482 482 l 121 482 l 121 603 l 723 603 l 723 482 l 603 482 l 603 362 l 482 362 l 482 482 z "},"{":{"ha":844,"x_min":121,"x_max":723,"o":"m 482 723 l 482 482 l 362 482 l 362 723 l 482 723 m 482 723 l 482 844 l 723 844 l 723 723 l 482 723 m 362 482 l 362 362 l 121 362 l 121 482 l 362 482 m 362 362 l 482 362 l 482 121 l 362 121 l 362 362 m 482 121 l 723 121 l 723 0 l 482 0 l 482 121 z "},"|":{"ha":362,"x_min":121,"x_max":241,"o":"m 241 844 l 241 0 l 121 0 l 121 844 l 241 844 z "},"}":{"ha":844,"x_min":121,"x_max":723,"o":"m 482 723 l 482 482 l 362 482 l 362 723 l 482 723 m 121 723 l 121 844 l 362 844 l 362 723 l 121 723 m 723 482 l 723 362 l 482 362 l 482 482 l 723 482 m 482 121 l 362 121 l 362 362 l 482 362 l 482 121 m 362 0 l 121 0 l 121 121 l 362 121 l 362 0 z "},"~":{"ha":965,"x_min":121,"x_max":844,"o":"m 723 482 l 723 362 l 482 362 l 482 482 l 723 482 m 723 482 l 723 603 l 844 603 l 844 482 l 723 482 m 482 482 l 241 482 l 241 603 l 482 603 l 482 482 m 241 482 l 241 362 l 121 362 l 121 482 l 241 482 z "}," ":{"ha":482,"x_min":0,"x_max":0,"o":""},"¡":{"ha":362,"x_min":121,"x_max":241,"o":"m 241 603 l 121 603 l 121 723 l 241 723 l 241 603 m 241 -121 l 121 -121 l 121 482 l 241 482 l 241 -121 z "},"¢":{"ha":844,"x_min":121,"x_max":723,"o":"m 603 603 l 241 603 l 241 723 l 362 723 l 362 844 l 482 844 l 482 723 l 603 723 l 603 603 m 603 603 l 723 603 l 723 482 l 603 482 l 603 603 m 241 603 l 241 241 l 121 241 l 121 603 l 241 603 m 241 241 l 603 241 l 603 121 l 482 121 l 482 0 l 362 0 l 362 121 l 241 121 l 241 241 m 603 241 l 603 362 l 723 362 l 723 241 l 603 241 z "},"£":{"ha":965,"x_min":121,"x_max":844,"o":"m 723 723 l 362 723 l 362 844 l 723 844 l 723 723 m 723 723 l 844 723 l 844 482 l 723 482 l 723 723 m 362 723 l 362 482 l 603 482 l 603 362 l 362 362 l 362 121 l 723 121 l 723 0 l 121 0 l 121 121 l 241 121 l 241 362 l 121 362 l 121 482 l 241 482 l 241 723 l 362 723 m 723 121 l 723 362 l 844 362 l 844 121 l 723 121 z "},"¥":{"ha":844,"x_min":121,"x_max":723,"o":"m 362 482 l 482 482 l 482 362 l 723 362 l 723 241 l 482 241 l 482 121 l 723 121 l 723 0 l 482 0 l 482 -121 l 362 -121 l 362 0 l 121 0 l 121 121 l 362 121 l 362 241 l 121 241 l 121 362 l 362 362 l 362 482 m 362 482 l 241 482 l 241 603 l 362 603 l 362 482 m 482 482 l 482 603 l 603 603 l 603 482 l 482 482 m 121 844 l 241 844 l 241 603 l 121 603 l 121 844 m 603 844 l 723 844 l 723 603 l 603 603 l 603 844 z "},"¦":{"ha":362,"x_min":121,"x_max":241,"o":"m 241 0 l 121 0 l 121 362 l 241 362 l 241 0 m 241 482 l 121 482 l 121 844 l 241 844 l 241 482 z "},"¨":{"ha":723,"x_min":121,"x_max":603,"o":"m 241 723 l 121 723 l 121 844 l 241 844 l 241 723 m 603 723 l 482 723 l 482 844 l 603 844 l 603 723 z "},"©":{"ha":1206,"x_min":121,"x_max":1085,"o":"m 482 482 l 482 241 l 362 241 l 362 482 l 482 482 m 482 482 l 482 603 l 723 603 l 723 482 l 482 482 m 482 241 l 723 241 l 723 121 l 482 121 l 482 241 m 844 0 l 844 121 l 965 121 l 965 0 l 844 0 m 965 121 l 965 603 l 1085 603 l 1085 121 l 965 121 m 965 603 l 844 603 l 844 723 l 965 723 l 965 603 m 362 0 l 241 0 l 241 121 l 362 121 l 362 0 m 844 0 l 844 -121 l 362 -121 l 362 0 l 844 0 m 241 121 l 121 121 l 121 603 l 241 603 l 241 121 m 241 603 l 241 723 l 362 723 l 362 603 l 241 603 m 844 844 l 844 723 l 362 723 l 362 844 l 844 844 z "},"«":{"ha":965,"x_min":121,"x_max":844,"o":"m 362 603 l 362 482 l 241 482 l 241 603 l 362 603 m 723 603 l 723 723 l 844 723 l 844 603 l 723 603 m 603 482 l 603 362 l 482 362 l 482 482 l 603 482 m 603 362 l 723 362 l 723 241 l 603 241 l 603 362 m 723 241 l 844 241 l 844 121 l 723 121 l 723 241 m 723 603 l 723 482 l 603 482 l 603 603 l 723 603 m 362 603 l 362 723 l 482 723 l 482 603 l 362 603 m 241 482 l 241 362 l 121 362 l 121 482 l 241 482 m 241 362 l 362 362 l 362 241 l 241 241 l 241 362 m 362 241 l 482 241 l 482 121 l 362 121 l 362 241 z "},"¬":{"ha":844,"x_min":121,"x_max":723,"o":"m 121 362 l 121 482 l 723 482 l 723 121 l 603 121 l 603 362 l 121 362 z "},"®":{"ha":1206,"x_min":121,"x_max":1085,"o":"m 844 844 l 844 723 l 362 723 l 362 844 l 844 844 m 241 603 l 241 723 l 362 723 l 362 603 l 241 603 m 241 121 l 121 121 l 121 603 l 241 603 l 241 121 m 844 0 l 844 -121 l 362 -121 l 362 0 l 844 0 m 362 0 l 241 0 l 241 121 l 362 121 l 362 0 m 965 603 l 844 603 l 844 723 l 965 723 l 965 603 m 965 121 l 965 603 l 1085 603 l 1085 121 l 965 121 m 844 0 l 844 121 l 965 121 l 965 0 l 844 0 m 482 362 l 723 362 l 723 241 l 482 241 l 482 121 l 362 121 l 362 603 l 723 603 l 723 482 l 482 482 l 482 362 m 844 362 l 723 362 l 723 482 l 844 482 l 844 362 m 844 121 l 723 121 l 723 241 l 844 241 l 844 121 z "},"°":{"ha":723,"x_min":121,"x_max":603,"o":"m 482 723 l 603 723 l 603 482 l 482 482 l 482 723 m 241 723 l 241 844 l 482 844 l 482 723 l 241 723 m 241 482 l 121 482 l 121 723 l 241 723 l 241 482 m 482 482 l 482 362 l 241 362 l 241 482 l 482 482 z "},"±":{"ha":844,"x_min":121,"x_max":723,"o":"m 121 482 l 121 603 l 362 603 l 362 844 l 482 844 l 482 603 l 723 603 l 723 482 l 482 482 l 482 241 l 362 241 l 362 482 l 121 482 m 121 0 l 121 121 l 723 121 l 723 0 l 121 0 z "},"´":{"ha":482,"x_min":121,"x_max":362,"o":"m 241 603 l 121 603 l 121 723 l 241 723 l 241 603 m 241 844 l 362 844 l 362 723 l 241 723 l 241 844 z "},"µ":{"ha":844,"x_min":121,"x_max":723,"o":"m 603 241 l 603 603 l 723 603 l 723 241 l 603 241 m 603 241 l 603 121 l 241 121 l 241 -121 l 121 -121 l 121 603 l 241 603 l 241 241 l 603 241 z "},"¶":{"ha":965,"x_min":121,"x_max":844,"o":"m 603 0 l 482 0 l 482 241 l 241 241 l 241 362 l 121 362 l 121 723 l 241 723 l 241 844 l 844 844 l 844 0 l 723 0 l 723 723 l 603 723 l 603 0 z "},"·":{"ha":362,"x_min":121,"x_max":241,"o":"m 241 362 l 121 362 l 121 482 l 241 482 l 241 362 z "},"¸":{"ha":723,"x_min":121,"x_max":603,"o":"m 482 0 l 482 121 l 603 121 l 603 0 l 482 0 m 482 0 l 482 -121 l 121 -121 l 121 0 l 482 0 m 482 121 l 362 121 l 362 241 l 482 241 l 482 121 z "},"»":{"ha":965,"x_min":121,"x_max":844,"o":"m 723 603 l 723 482 l 603 482 l 603 603 l 723 603 m 121 603 l 121 723 l 241 723 l 241 603 l 121 603 m 482 482 l 482 362 l 362 362 l 362 482 l 482 482 m 362 241 l 241 241 l 241 362 l 362 362 l 362 241 m 241 121 l 121 121 l 121 241 l 241 241 l 241 121 m 362 603 l 362 482 l 241 482 l 241 603 l 362 603 m 482 603 l 482 723 l 603 723 l 603 603 l 482 603 m 844 482 l 844 362 l 723 362 l 723 482 l 844 482 m 723 241 l 603 241 l 603 362 l 723 362 l 723 241 m 603 121 l 482 121 l 482 241 l 603 241 l 603 121 z "},"¿":{"ha":844,"x_min":121,"x_max":723,"o":"m 603 0 l 603 -121 l 241 -121 l 241 0 l 603 0 m 362 482 l 482 482 l 482 362 l 362 362 l 362 482 m 603 0 l 603 241 l 723 241 l 723 0 l 603 0 m 241 0 l 121 0 l 121 241 l 241 241 l 241 0 m 241 241 l 241 362 l 362 362 l 362 241 l 241 241 m 482 723 l 603 723 l 603 603 l 482 603 l 482 723 z "},"À":{"ha":844,"x_min":121,"x_max":723,"o":"m 241 482 l 241 603 l 362 603 l 362 723 l 482 723 l 482 603 l 603 603 l 603 482 l 241 482 m 362 723 l 241 723 l 241 844 l 362 844 l 362 723 m 723 482 l 723 0 l 603 0 l 603 121 l 241 121 l 241 0 l 121 0 l 121 482 l 241 482 l 241 241 l 603 241 l 603 482 l 723 482 z "},"Á":{"ha":844,"x_min":121,"x_max":723,"o":"m 241 482 l 241 603 l 362 603 l 362 723 l 482 723 l 482 603 l 603 603 l 603 482 l 241 482 m 482 844 l 603 844 l 603 723 l 482 723 l 482 844 m 241 482 l 241 241 l 603 241 l 603 482 l 723 482 l 723 0 l 603 0 l 603 121 l 241 121 l 241 0 l 121 0 l 121 482 l 241 482 z "},"Â":{"ha":844,"x_min":121,"x_max":723,"o":"m 603 362 l 723 362 l 723 0 l 603 0 l 603 121 l 241 121 l 241 0 l 121 0 l 121 362 l 241 362 l 241 241 l 603 241 l 603 362 m 482 723 l 603 723 l 603 603 l 482 603 l 482 723 m 362 844 l 482 844 l 482 723 l 362 723 l 362 844 m 241 723 l 362 723 l 362 603 l 241 603 l 241 723 m 241 362 l 241 482 l 603 482 l 603 362 l 241 362 m 603 603 l 723 603 l 723 482 l 603 482 l 603 603 m 241 482 l 121 482 l 121 603 l 241 603 l 241 482 z "},"Ã":{"ha":844,"x_min":121,"x_max":844,"o":"m 241 723 l 241 844 l 482 844 l 482 723 l 241 723 m 603 603 l 603 482 l 241 482 l 241 603 l 482 603 l 482 723 l 723 723 l 723 603 l 603 603 m 241 482 l 241 241 l 603 241 l 603 482 l 723 482 l 723 0 l 603 0 l 603 121 l 241 121 l 241 0 l 121 0 l 121 482 l 241 482 m 723 723 l 723 844 l 844 844 l 844 723 l 723 723 m 241 603 l 121 603 l 121 723 l 241 723 l 241 603 z "},"Ä":{"ha":844,"x_min":121,"x_max":723,"o":"m 603 723 l 603 844 l 723 844 l 723 723 l 603 723 m 603 603 l 603 482 l 241 482 l 241 603 l 603 603 m 603 482 l 723 482 l 723 0 l 603 0 l 603 121 l 241 121 l 241 0 l 121 0 l 121 482 l 241 482 l 241 241 l 603 241 l 603 482 m 241 844 l 241 723 l 121 723 l 121 844 l 241 844 z "},"Å":{"ha":844,"x_min":121,"x_max":723,"o":"m 603 723 l 603 482 l 241 482 l 241 723 l 362 723 l 362 603 l 482 603 l 482 723 l 603 723 m 723 482 l 723 0 l 603 0 l 603 121 l 241 121 l 241 0 l 121 0 l 121 482 l 241 482 l 241 241 l 603 241 l 603 482 l 723 482 m 362 723 l 362 844 l 482 844 l 482 723 l 362 723 z "},"Æ":{"ha":1085,"x_min":121,"x_max":965,"o":"m 241 723 l 241 362 l 482 362 l 482 723 l 241 723 m 241 723 l 241 844 l 965 844 l 965 723 l 603 723 l 603 482 l 844 482 l 844 362 l 603 362 l 603 121 l 965 121 l 965 0 l 482 0 l 482 241 l 241 241 l 241 0 l 121 0 l 121 723 l 241 723 z "},"Ç":{"ha":844,"x_min":121,"x_max":723,"o":"m 603 723 l 241 723 l 241 844 l 603 844 l 603 723 m 603 723 l 723 723 l 723 603 l 603 603 l 603 723 m 241 723 l 241 362 l 121 362 l 121 723 l 241 723 m 482 0 l 482 121 l 603 121 l 603 0 l 482 0 m 482 0 l 482 -121 l 121 -121 l 121 0 l 482 0 m 482 121 l 362 121 l 362 241 l 241 241 l 241 362 l 603 362 l 603 241 l 482 241 l 482 121 m 603 362 l 603 482 l 723 482 l 723 362 l 603 362 z "},"È":{"ha":844,"x_min":121,"x_max":723,"o":"m 362 723 l 482 723 l 482 603 l 723 603 l 723 482 l 241 482 l 241 362 l 603 362 l 603 241 l 241 241 l 241 121 l 723 121 l 723 0 l 121 0 l 121 603 l 362 603 l 362 723 m 362 723 l 241 723 l 241 844 l 362 844 l 362 723 z "},"É":{"ha":844,"x_min":121,"x_max":723,"o":"m 482 723 l 482 603 l 723 603 l 723 482 l 241 482 l 241 362 l 603 362 l 603 241 l 241 241 l 241 121 l 723 121 l 723 0 l 121 0 l 121 603 l 362 603 l 362 723 l 482 723 m 482 723 l 482 844 l 603 844 l 603 723 l 482 723 z "},"Ê":{"ha":844,"x_min":121,"x_max":723,"o":"m 362 723 l 362 844 l 482 844 l 482 723 l 362 723 m 723 603 l 723 482 l 241 482 l 241 362 l 603 362 l 603 241 l 241 241 l 241 121 l 723 121 l 723 0 l 121 0 l 121 603 l 241 603 l 241 723 l 362 723 l 362 603 l 482 603 l 482 723 l 603 723 l 603 603 l 723 603 z "},"Ë":{"ha":844,"x_min":121,"x_max":723,"o":"m 241 121 l 723 121 l 723 0 l 121 0 l 121 603 l 723 603 l 723 482 l 241 482 l 241 362 l 603 362 l 603 241 l 241 241 l 241 121 m 603 723 l 603 844 l 723 844 l 723 723 l 603 723 m 241 844 l 241 723 l 121 723 l 121 844 l 241 844 z "},"Ì":{"ha":603,"x_min":121,"x_max":482,"o":"m 241 723 l 362 723 l 362 603 l 482 603 l 482 482 l 362 482 l 362 121 l 482 121 l 482 0 l 121 0 l 121 121 l 241 121 l 241 482 l 121 482 l 121 603 l 241 603 l 241 723 m 241 723 l 121 723 l 121 844 l 241 844 l 241 723 z "},"Í":{"ha":603,"x_min":121,"x_max":482,"o":"m 362 603 l 482 603 l 482 482 l 362 482 l 362 121 l 482 121 l 482 0 l 121 0 l 121 121 l 241 121 l 241 482 l 121 482 l 121 603 l 241 603 l 241 723 l 362 723 l 362 603 m 362 844 l 482 844 l 482 723 l 362 723 l 362 844 z "},"Î":{"ha":603,"x_min":0,"x_max":603,"o":"m 362 603 l 362 723 l 482 723 l 482 603 l 362 603 m 241 723 l 241 844 l 362 844 l 362 723 l 241 723 m 482 362 l 362 362 l 362 121 l 482 121 l 482 0 l 121 0 l 121 121 l 241 121 l 241 362 l 121 362 l 121 482 l 482 482 l 482 362 m 482 482 l 482 603 l 603 603 l 603 482 l 482 482 m 0 482 l 0 603 l 121 603 l 121 482 l 0 482 m 121 603 l 121 723 l 241 723 l 241 603 l 121 603 z "},"Ï":{"ha":603,"x_min":0,"x_max":603,"o":"m 241 482 l 121 482 l 121 603 l 482 603 l 482 482 l 362 482 l 362 121 l 482 121 l 482 0 l 121 0 l 121 121 l 241 121 l 241 482 m 121 844 l 121 723 l 0 723 l 0 844 l 121 844 m 482 723 l 482 844 l 603 844 l 603 723 l 482 723 z "},"Ð":{"ha":844,"x_min":0,"x_max":723,"o":"m 603 723 l 723 723 l 723 121 l 603 121 l 603 723 m 603 0 l 121 0 l 121 362 l 0 362 l 0 482 l 121 482 l 121 844 l 603 844 l 603 723 l 241 723 l 241 482 l 482 482 l 482 362 l 241 362 l 241 121 l 603 121 l 603 0 z "},"Ñ":{"ha":844,"x_min":121,"x_max":844,"o":"m 362 362 l 482 362 l 482 241 l 362 241 l 362 362 m 723 723 l 723 844 l 844 844 l 844 723 l 723 723 m 482 723 l 241 723 l 241 844 l 482 844 l 482 723 m 241 482 l 362 482 l 362 362 l 241 362 l 241 0 l 121 0 l 121 723 l 241 723 l 241 482 m 603 603 l 482 603 l 482 723 l 723 723 l 723 0 l 603 0 l 603 121 l 482 121 l 482 241 l 603 241 l 603 603 z "},"Ò":{"ha":844,"x_min":121,"x_max":723,"o":"m 241 121 l 603 121 l 603 0 l 241 0 l 241 121 m 241 121 l 121 121 l 121 482 l 241 482 l 241 121 m 603 121 l 603 482 l 723 482 l 723 121 l 603 121 m 241 482 l 241 603 l 362 603 l 362 723 l 482 723 l 482 603 l 603 603 l 603 482 l 241 482 m 362 723 l 241 723 l 241 844 l 362 844 l 362 723 z "},"Ó":{"ha":844,"x_min":121,"x_max":723,"o":"m 241 482 l 241 603 l 362 603 l 362 723 l 482 723 l 482 603 l 603 603 l 603 482 l 241 482 m 241 121 l 121 121 l 121 482 l 241 482 l 241 121 m 603 121 l 603 482 l 723 482 l 723 121 l 603 121 m 241 121 l 603 121 l 603 0 l 241 0 l 241 121 m 482 844 l 603 844 l 603 723 l 482 723 l 482 844 z "},"Ô":{"ha":844,"x_min":121,"x_max":723,"o":"m 241 482 l 121 482 l 121 603 l 241 603 l 241 482 m 241 121 l 121 121 l 121 362 l 241 362 l 241 121 m 603 121 l 603 362 l 723 362 l 723 121 l 603 121 m 241 121 l 603 121 l 603 0 l 241 0 l 241 121 m 482 723 l 603 723 l 603 603 l 482 603 l 482 723 m 362 844 l 482 844 l 482 723 l 362 723 l 362 844 m 241 723 l 362 723 l 362 603 l 241 603 l 241 723 m 241 362 l 241 482 l 603 482 l 603 362 l 241 362 m 603 603 l 723 603 l 723 482 l 603 482 l 603 603 z "},"Õ":{"ha":844,"x_min":121,"x_max":844,"o":"m 241 723 l 241 844 l 482 844 l 482 723 l 241 723 m 241 603 l 121 603 l 121 723 l 241 723 l 241 603 m 723 723 l 723 844 l 844 844 l 844 723 l 723 723 m 241 121 l 603 121 l 603 0 l 241 0 l 241 121 m 603 121 l 603 482 l 723 482 l 723 121 l 603 121 m 241 121 l 121 121 l 121 482 l 241 482 l 241 121 m 603 603 l 603 482 l 241 482 l 241 603 l 482 603 l 482 723 l 723 723 l 723 603 l 603 603 z "},"Ö":{"ha":844,"x_min":121,"x_max":723,"o":"m 603 723 l 603 844 l 723 844 l 723 723 l 603 723 m 241 121 l 121 121 l 121 482 l 241 482 l 241 121 m 603 121 l 603 482 l 723 482 l 723 121 l 603 121 m 241 121 l 603 121 l 603 0 l 241 0 l 241 121 m 603 603 l 603 482 l 241 482 l 241 603 l 603 603 m 241 844 l 241 723 l 121 723 l 121 844 l 241 844 z "},"×":{"ha":844,"x_min":121,"x_max":723,"o":"m 362 482 l 482 482 l 482 362 l 362 362 l 362 482 m 362 482 l 241 482 l 241 603 l 362 603 l 362 482 m 362 362 l 362 241 l 241 241 l 241 362 l 362 362 m 482 362 l 603 362 l 603 241 l 482 241 l 482 362 m 482 482 l 482 603 l 603 603 l 603 482 l 482 482 m 241 603 l 121 603 l 121 723 l 241 723 l 241 603 m 603 603 l 603 723 l 723 723 l 723 603 l 603 603 m 603 241 l 723 241 l 723 121 l 603 121 l 603 241 m 241 241 l 241 121 l 121 121 l 121 241 l 241 241 z "},"Ø":{"ha":844,"x_min":0,"x_max":844,"o":"m 603 723 l 241 723 l 241 844 l 603 844 l 603 723 m 241 362 l 362 362 l 362 241 l 241 241 l 241 121 l 121 121 l 121 723 l 241 723 l 241 362 m 362 482 l 482 482 l 482 362 l 362 362 l 362 482 m 603 603 l 603 723 l 723 723 l 723 121 l 603 121 l 603 482 l 482 482 l 482 603 l 603 603 m 603 121 l 603 0 l 241 0 l 241 121 l 603 121 m 0 121 l 121 121 l 121 0 l 0 0 l 0 121 m 723 844 l 844 844 l 844 723 l 723 723 l 723 844 z "},"Ù":{"ha":844,"x_min":121,"x_max":723,"o":"m 241 121 l 603 121 l 603 0 l 241 0 l 241 121 m 362 723 l 241 723 l 241 844 l 362 844 l 362 723 m 362 603 l 362 723 l 482 723 l 482 603 l 362 603 m 603 121 l 603 603 l 723 603 l 723 121 l 603 121 m 241 121 l 121 121 l 121 603 l 241 603 l 241 121 z "},"Ú":{"ha":844,"x_min":121,"x_max":723,"o":"m 603 0 l 241 0 l 241 121 l 603 121 l 603 0 m 482 844 l 603 844 l 603 723 l 482 723 l 482 844 m 362 603 l 362 723 l 482 723 l 482 603 l 362 603 m 121 121 l 121 603 l 241 603 l 241 121 l 121 121 m 603 603 l 723 603 l 723 121 l 603 121 l 603 603 z "},"Û":{"ha":844,"x_min":121,"x_max":723,"o":"m 362 723 l 362 844 l 482 844 l 482 723 l 362 723 m 482 603 l 482 723 l 603 723 l 603 603 l 482 603 m 362 603 l 241 603 l 241 723 l 362 723 l 362 603 m 603 0 l 241 0 l 241 121 l 603 121 l 603 0 m 603 603 l 723 603 l 723 121 l 603 121 l 603 603 m 121 121 l 121 603 l 241 603 l 241 121 l 121 121 z "},"Ü":{"ha":844,"x_min":121,"x_max":723,"o":"m 121 121 l 121 603 l 241 603 l 241 121 l 121 121 m 482 723 l 482 844 l 603 844 l 603 723 l 482 723 m 362 723 l 241 723 l 241 844 l 362 844 l 362 723 m 603 0 l 241 0 l 241 121 l 603 121 l 603 0 m 603 603 l 723 603 l 723 121 l 603 121 l 603 603 z "},"Ý":{"ha":844,"x_min":121,"x_max":723,"o":"m 482 723 l 482 603 l 362 603 l 362 723 l 482 723 m 482 0 l 362 0 l 362 241 l 482 241 l 482 0 m 603 241 l 482 241 l 482 362 l 603 362 l 603 241 m 362 241 l 241 241 l 241 362 l 362 362 l 362 241 m 241 362 l 121 362 l 121 603 l 241 603 l 241 362 m 723 362 l 603 362 l 603 603 l 723 603 l 723 362 m 482 723 l 482 844 l 603 844 l 603 723 l 482 723 z "},"Þ":{"ha":844,"x_min":121,"x_max":723,"o":"m 603 241 l 603 121 l 241 121 l 241 0 l 121 0 l 121 844 l 241 844 l 241 723 l 603 723 l 603 603 l 241 603 l 241 241 l 603 241 m 603 603 l 723 603 l 723 241 l 603 241 l 603 603 z "},"ß":{"ha":844,"x_min":121,"x_max":723,"o":"m 603 121 l 603 362 l 723 362 l 723 121 l 603 121 m 603 121 l 603 0 l 362 0 l 362 121 l 603 121 m 603 362 l 362 362 l 362 482 l 603 482 l 603 362 m 603 482 l 603 723 l 723 723 l 723 482 l 603 482 m 241 723 l 241 844 l 603 844 l 603 723 l 241 723 m 241 723 l 241 0 l 121 0 l 121 723 l 241 723 z "},"à":{"ha":844,"x_min":121,"x_max":723,"o":"m 362 723 l 241 723 l 241 844 l 362 844 l 362 723 m 362 603 l 362 723 l 482 723 l 482 603 l 603 603 l 603 482 l 241 482 l 241 603 l 362 603 m 241 121 l 121 121 l 121 241 l 241 241 l 241 121 m 603 241 l 241 241 l 241 362 l 603 362 l 603 482 l 723 482 l 723 0 l 241 0 l 241 121 l 603 121 l 603 241 z "},"á":{"ha":844,"x_min":121,"x_max":723,"o":"m 241 121 l 121 121 l 121 241 l 241 241 l 241 121 m 362 603 l 362 723 l 482 723 l 482 603 l 603 603 l 603 482 l 241 482 l 241 603 l 362 603 m 603 723 l 482 723 l 482 844 l 603 844 l 603 723 m 603 241 l 241 241 l 241 362 l 603 362 l 603 482 l 723 482 l 723 0 l 241 0 l 241 121 l 603 121 l 603 241 z "},"â":{"ha":844,"x_min":121,"x_max":723,"o":"m 241 121 l 121 121 l 121 241 l 241 241 l 241 121 m 603 241 l 241 241 l 241 362 l 603 362 l 603 482 l 723 482 l 723 0 l 241 0 l 241 121 l 603 121 l 603 241 m 482 603 l 482 723 l 603 723 l 603 482 l 241 482 l 241 723 l 362 723 l 362 603 l 482 603 m 482 723 l 362 723 l 362 844 l 482 844 l 482 723 z "},"ã":{"ha":844,"x_min":121,"x_max":844,"o":"m 241 121 l 121 121 l 121 241 l 241 241 l 241 121 m 723 723 l 723 603 l 603 603 l 603 482 l 241 482 l 241 603 l 482 603 l 482 723 l 723 723 m 603 241 l 241 241 l 241 362 l 603 362 l 603 482 l 723 482 l 723 0 l 241 0 l 241 121 l 603 121 l 603 241 m 241 723 l 241 603 l 121 603 l 121 723 l 241 723 m 482 723 l 241 723 l 241 844 l 482 844 l 482 723 m 723 723 l 723 844 l 844 844 l 844 723 l 723 723 z "},"ä":{"ha":844,"x_min":121,"x_max":723,"o":"m 603 723 l 603 844 l 723 844 l 723 723 l 603 723 m 603 241 l 241 241 l 241 362 l 603 362 l 603 482 l 723 482 l 723 0 l 241 0 l 241 121 l 603 121 l 603 241 m 241 121 l 121 121 l 121 241 l 241 241 l 241 121 m 603 482 l 241 482 l 241 603 l 603 603 l 603 482 m 241 844 l 241 723 l 121 723 l 121 844 l 241 844 z "},"å":{"ha":844,"x_min":121,"x_max":723,"o":"m 603 844 l 603 723 l 241 723 l 241 844 l 603 844 m 723 723 l 723 603 l 603 603 l 603 723 l 723 723 m 241 723 l 241 603 l 121 603 l 121 723 l 241 723 m 603 603 l 603 482 l 241 482 l 241 603 l 603 603 m 603 241 l 241 241 l 241 362 l 603 362 l 603 482 l 723 482 l 723 0 l 241 0 l 241 121 l 603 121 l 603 241 m 241 121 l 121 121 l 121 241 l 241 241 l 241 121 z "},"æ":{"ha":1085,"x_min":121,"x_max":965,"o":"m 965 482 l 965 241 l 603 241 l 603 121 l 482 121 l 482 241 l 241 241 l 241 362 l 482 362 l 482 482 l 603 482 l 603 362 l 844 362 l 844 482 l 965 482 m 482 0 l 241 0 l 241 121 l 482 121 l 482 0 m 844 0 l 603 0 l 603 121 l 844 121 l 844 0 m 121 121 l 121 241 l 241 241 l 241 121 l 121 121 m 482 482 l 241 482 l 241 603 l 482 603 l 482 482 m 844 482 l 603 482 l 603 603 l 844 603 l 844 482 z "},"ç":{"ha":844,"x_min":0,"x_max":723,"o":"m 603 603 l 241 603 l 241 723 l 603 723 l 603 603 m 603 603 l 723 603 l 723 482 l 603 482 l 603 603 m 241 603 l 241 241 l 121 241 l 121 603 l 241 603 m 362 0 l 362 121 l 241 121 l 241 241 l 603 241 l 603 121 l 482 121 l 482 0 l 362 0 m 362 0 l 362 -121 l 0 -121 l 0 0 l 362 0 m 603 241 l 603 362 l 723 362 l 723 241 l 603 241 z "},"è":{"ha":844,"x_min":121,"x_max":723,"o":"m 603 482 l 723 482 l 723 241 l 241 241 l 241 121 l 121 121 l 121 482 l 241 482 l 241 362 l 603 362 l 603 482 m 241 0 l 241 121 l 603 121 l 603 0 l 241 0 m 362 723 l 241 723 l 241 844 l 362 844 l 362 723 m 482 603 l 603 603 l 603 482 l 241 482 l 241 603 l 362 603 l 362 723 l 482 723 l 482 603 z "},"é":{"ha":844,"x_min":121,"x_max":723,"o":"m 603 482 l 723 482 l 723 241 l 241 241 l 241 121 l 121 121 l 121 482 l 241 482 l 241 362 l 603 362 l 603 482 m 241 0 l 241 121 l 603 121 l 603 0 l 241 0 m 603 723 l 482 723 l 482 844 l 603 844 l 603 723 m 482 603 l 603 603 l 603 482 l 241 482 l 241 603 l 362 603 l 362 723 l 482 723 l 482 603 z "},"ê":{"ha":844,"x_min":121,"x_max":723,"o":"m 603 482 l 723 482 l 723 241 l 241 241 l 241 121 l 121 121 l 121 482 l 241 482 l 241 362 l 603 362 l 603 482 m 241 0 l 241 121 l 603 121 l 603 0 l 241 0 m 482 603 l 482 723 l 603 723 l 603 482 l 241 482 l 241 723 l 362 723 l 362 603 l 482 603 m 482 723 l 362 723 l 362 844 l 482 844 l 482 723 z "},"ë":{"ha":844,"x_min":121,"x_max":723,"o":"m 241 482 l 241 603 l 603 603 l 603 482 l 241 482 m 362 723 l 241 723 l 241 844 l 362 844 l 362 723 m 603 723 l 482 723 l 482 844 l 603 844 l 603 723 m 241 0 l 241 121 l 603 121 l 603 0 l 241 0 m 603 482 l 723 482 l 723 241 l 241 241 l 241 121 l 121 121 l 121 482 l 241 482 l 241 362 l 603 362 l 603 482 z "},"ì":{"ha":603,"x_min":121,"x_max":482,"o":"m 241 723 l 362 723 l 362 121 l 482 121 l 482 0 l 121 0 l 121 121 l 241 121 l 241 482 l 121 482 l 121 603 l 241 603 l 241 723 m 241 723 l 121 723 l 121 844 l 241 844 l 241 723 z "},"í":{"ha":603,"x_min":121,"x_max":482,"o":"m 362 121 l 482 121 l 482 0 l 121 0 l 121 121 l 241 121 l 241 482 l 121 482 l 121 603 l 241 603 l 241 723 l 362 723 l 362 121 m 362 844 l 482 844 l 482 723 l 362 723 l 362 844 z "},"î":{"ha":603,"x_min":0,"x_max":603,"o":"m 121 482 l 362 482 l 362 121 l 482 121 l 482 0 l 121 0 l 121 121 l 241 121 l 241 362 l 121 362 l 121 482 m 0 482 l 0 603 l 121 603 l 121 482 l 0 482 m 121 603 l 121 723 l 241 723 l 241 603 l 121 603 m 241 723 l 241 844 l 362 844 l 362 723 l 241 723 m 362 603 l 362 723 l 482 723 l 482 603 l 362 603 m 482 482 l 482 603 l 603 603 l 603 482 l 482 482 z "},"ï":{"ha":603,"x_min":0,"x_max":603,"o":"m 241 482 l 121 482 l 121 603 l 362 603 l 362 121 l 482 121 l 482 0 l 121 0 l 121 121 l 241 121 l 241 482 m 482 723 l 482 844 l 603 844 l 603 723 l 482 723 m 121 844 l 121 723 l 0 723 l 0 844 l 121 844 z "},"ð":{"ha":844,"x_min":121,"x_max":844,"o":"m 603 121 l 603 362 l 241 362 l 241 482 l 603 482 l 603 603 l 362 603 l 362 723 l 603 723 l 603 844 l 723 844 l 723 723 l 844 723 l 844 603 l 723 603 l 723 0 l 241 0 l 241 121 l 603 121 m 241 362 l 241 121 l 121 121 l 121 362 l 241 362 z "},"ñ":{"ha":844,"x_min":121,"x_max":844,"o":"m 723 723 l 723 844 l 844 844 l 844 723 l 723 723 m 603 603 l 603 482 l 241 482 l 241 0 l 121 0 l 121 723 l 241 723 l 241 603 l 482 603 l 482 723 l 723 723 l 723 603 l 603 603 m 482 723 l 241 723 l 241 844 l 482 844 l 482 723 m 603 482 l 723 482 l 723 0 l 603 0 l 603 482 z "},"ò":{"ha":844,"x_min":121,"x_max":723,"o":"m 241 121 l 603 121 l 603 0 l 241 0 l 241 121 m 241 121 l 121 121 l 121 482 l 241 482 l 241 121 m 603 121 l 603 482 l 723 482 l 723 121 l 603 121 m 241 482 l 241 603 l 362 603 l 362 723 l 482 723 l 482 603 l 603 603 l 603 482 l 241 482 m 362 723 l 241 723 l 241 844 l 362 844 l 362 723 z "},"ó":{"ha":844,"x_min":121,"x_max":723,"o":"m 241 482 l 241 603 l 362 603 l 362 723 l 482 723 l 482 603 l 603 603 l 603 482 l 241 482 m 241 121 l 121 121 l 121 482 l 241 482 l 241 121 m 603 121 l 603 482 l 723 482 l 723 121 l 603 121 m 241 121 l 603 121 l 603 0 l 241 0 l 241 121 m 482 844 l 603 844 l 603 723 l 482 723 l 482 844 z "},"ô":{"ha":844,"x_min":121,"x_max":723,"o":"m 241 482 l 121 482 l 121 603 l 241 603 l 241 482 m 241 121 l 121 121 l 121 362 l 241 362 l 241 121 m 603 121 l 603 362 l 723 362 l 723 121 l 603 121 m 241 121 l 603 121 l 603 0 l 241 0 l 241 121 m 482 723 l 603 723 l 603 603 l 482 603 l 482 723 m 362 844 l 482 844 l 482 723 l 362 723 l 362 844 m 241 723 l 362 723 l 362 603 l 241 603 l 241 723 m 241 362 l 241 482 l 603 482 l 603 362 l 241 362 m 603 603 l 723 603 l 723 482 l 603 482 l 603 603 z "},"õ":{"ha":844,"x_min":121,"x_max":844,"o":"m 241 723 l 241 844 l 482 844 l 482 723 l 241 723 m 241 603 l 121 603 l 121 723 l 241 723 l 241 603 m 723 723 l 723 844 l 844 844 l 844 723 l 723 723 m 241 121 l 603 121 l 603 0 l 241 0 l 241 121 m 603 121 l 603 482 l 723 482 l 723 121 l 603 121 m 241 121 l 121 121 l 121 482 l 241 482 l 241 121 m 603 603 l 603 482 l 241 482 l 241 603 l 482 603 l 482 723 l 723 723 l 723 603 l 603 603 z "},"ö":{"ha":844,"x_min":121,"x_max":723,"o":"m 603 723 l 603 844 l 723 844 l 723 723 l 603 723 m 241 121 l 121 121 l 121 482 l 241 482 l 241 121 m 603 121 l 603 482 l 723 482 l 723 121 l 603 121 m 241 121 l 603 121 l 603 0 l 241 0 l 241 121 m 603 603 l 603 482 l 241 482 l 241 603 l 603 603 m 241 844 l 241 723 l 121 723 l 121 844 l 241 844 z "},"÷":{"ha":844,"x_min":121,"x_max":723,"o":"m 482 121 l 362 121 l 362 241 l 482 241 l 482 121 m 482 603 l 362 603 l 362 723 l 482 723 l 482 603 m 723 362 l 121 362 l 121 482 l 723 482 l 723 362 z "},"ø":{"ha":844,"x_min":121,"x_max":723,"o":"m 603 723 l 723 723 l 723 603 l 603 603 l 603 723 m 121 0 l 241 0 l 241 -121 l 121 -121 l 121 0 m 241 121 l 121 121 l 121 482 l 241 482 l 241 241 l 362 241 l 362 121 l 603 121 l 603 0 l 241 0 l 241 121 m 603 482 l 723 482 l 723 121 l 603 121 l 603 362 l 482 362 l 482 482 l 241 482 l 241 603 l 603 603 l 603 482 m 362 362 l 482 362 l 482 241 l 362 241 l 362 362 z "},"ù":{"ha":844,"x_min":121,"x_max":723,"o":"m 241 121 l 121 121 l 121 603 l 241 603 l 241 121 m 723 0 l 241 0 l 241 121 l 603 121 l 603 603 l 723 603 l 723 0 m 362 603 l 362 723 l 482 723 l 482 603 l 362 603 m 362 723 l 241 723 l 241 844 l 362 844 l 362 723 z "},"ú":{"ha":844,"x_min":121,"x_max":723,"o":"m 723 0 l 241 0 l 241 121 l 603 121 l 603 603 l 723 603 l 723 0 m 121 121 l 121 603 l 241 603 l 241 121 l 121 121 m 362 603 l 362 723 l 482 723 l 482 603 l 362 603 m 482 844 l 603 844 l 603 723 l 482 723 l 482 844 z "},"û":{"ha":844,"x_min":121,"x_max":723,"o":"m 603 603 l 723 603 l 723 0 l 241 0 l 241 121 l 603 121 l 603 603 m 121 603 l 241 603 l 241 121 l 121 121 l 121 603 m 362 603 l 241 603 l 241 723 l 362 723 l 362 603 m 482 723 l 362 723 l 362 844 l 482 844 l 482 723 m 603 603 l 482 603 l 482 723 l 603 723 l 603 603 z "},"ü":{"ha":844,"x_min":121,"x_max":723,"o":"m 121 121 l 121 603 l 241 603 l 241 121 l 121 121 m 603 121 l 603 603 l 723 603 l 723 0 l 241 0 l 241 121 l 603 121 m 241 723 l 121 723 l 121 844 l 241 844 l 241 723 m 603 723 l 603 844 l 723 844 l 723 723 l 603 723 z "},"ý":{"ha":844,"x_min":121,"x_max":723,"o":"m 241 241 l 121 241 l 121 603 l 241 603 l 241 241 m 482 844 l 603 844 l 603 723 l 482 723 l 482 844 m 482 603 l 362 603 l 362 723 l 482 723 l 482 603 m 603 -121 l 241 -121 l 241 0 l 602 0 l 603 -121 m 603 121 l 241 121 l 241 241 l 603 241 l 603 603 l 723 603 l 723 0 l 603 0 l 603 121 z "},"þ":{"ha":844,"x_min":121,"x_max":723,"o":"m 603 241 l 603 121 l 241 121 l 241 -121 l 121 -121 l 121 844 l 241 844 l 241 603 l 603 603 l 603 482 l 241 482 l 241 241 l 603 241 m 723 241 l 603 241 l 603 482 l 723 482 l 723 241 z "},"ÿ":{"ha":844,"x_min":121,"x_max":723,"o":"m 241 241 l 121 241 l 121 603 l 241 603 l 241 241 m 121 844 l 241 844 l 241 723 l 121 723 l 121 844 m 603 844 l 723 844 l 723 723 l 603 723 l 603 844 m 603 -121 l 241 -121 l 241 0 l 602 0 l 603 -121 m 603 121 l 241 121 l 241 241 l 603 241 l 603 603 l 723 603 l 723 0 l 603 0 l 603 121 z "},"Č":{"ha":844,"x_min":121,"x_max":723,"o":"m 603 121 l 603 0 l 241 0 l 241 121 l 603 121 m 603 482 l 723 482 l 723 362 l 603 362 l 603 482 m 241 121 l 121 121 l 121 482 l 241 482 l 241 121 m 603 121 l 603 241 l 723 241 l 723 121 l 603 121 m 362 723 l 241 723 l 241 844 l 362 844 l 362 723 m 482 603 l 603 603 l 603 482 l 241 482 l 241 603 l 362 603 l 362 723 l 482 723 l 482 603 m 603 723 l 482 723 l 482 844 l 603 844 l 603 723 z "},"č":{"ha":844,"x_min":121,"x_max":723,"o":"m 603 121 l 603 0 l 241 0 l 241 121 l 603 121 m 603 482 l 723 482 l 723 362 l 603 362 l 603 482 m 241 121 l 121 121 l 121 482 l 241 482 l 241 121 m 603 121 l 603 241 l 723 241 l 723 121 l 603 121 m 362 723 l 241 723 l 241 844 l 362 844 l 362 723 m 482 603 l 603 603 l 603 482 l 241 482 l 241 603 l 362 603 l 362 723 l 482 723 l 482 603 m 603 723 l 482 723 l 482 844 l 603 844 l 603 723 z "},"Ď":{"ha":844,"x_min":121,"x_max":723,"o":"m 603 723 l 482 723 l 482 844 l 603 844 l 603 723 m 362 723 l 241 723 l 241 844 l 362 844 l 362 723 m 241 121 l 603 121 l 603 0 l 121 0 l 121 603 l 362 603 l 362 723 l 482 723 l 482 603 l 603 603 l 603 482 l 241 482 l 241 121 m 723 121 l 603 121 l 603 482 l 723 482 l 723 121 z "},"ď":{"ha":1085,"x_min":121,"x_max":965,"o":"m 844 603 l 965 603 l 965 844 l 844 844 l 844 603 m 844 603 l 844 482 l 723 482 l 723 603 l 844 603 m 241 482 l 241 603 l 482 603 l 482 844 l 603 844 l 603 0 l 241 0 l 241 121 l 482 121 l 482 482 l 241 482 m 241 121 l 121 121 l 121 482 l 241 482 l 241 121 z "},"Ě":{"ha":844,"x_min":121,"x_max":723,"o":"m 482 723 l 482 603 l 723 603 l 723 482 l 241 482 l 241 362 l 603 362 l 603 241 l 241 241 l 241 121 l 723 121 l 723 0 l 121 0 l 121 603 l 362 603 l 362 723 l 482 723 m 482 723 l 482 844 l 603 844 l 603 723 l 482 723 m 362 723 l 241 723 l 241 844 l 362 844 l 362 723 z "},"ě":{"ha":844,"x_min":121,"x_max":723,"o":"m 723 482 l 723 241 l 241 241 l 241 121 l 121 121 l 121 482 l 241 482 l 241 362 l 603 362 l 603 482 l 723 482 m 362 723 l 241 723 l 241 844 l 362 844 l 362 723 m 482 603 l 603 603 l 603 482 l 241 482 l 241 603 l 362 603 l 362 723 l 482 723 l 482 603 m 603 723 l 482 723 l 482 844 l 603 844 l 603 723 m 241 121 l 603 121 l 603 0 l 241 0 l 241 121 z "},"ı":{"ha":603,"x_min":121,"x_max":482,"o":"m 241 482 l 121 482 l 121 603 l 362 603 l 362 121 l 482 121 l 482 0 l 121 0 l 121 121 l 241 121 l 241 482 z "},"Ň":{"ha":844,"x_min":121,"x_max":723,"o":"m 482 121 l 362 121 l 362 241 l 482 241 l 482 121 m 482 482 l 362 482 l 362 603 l 482 603 l 482 482 m 603 603 l 482 603 l 482 723 l 603 723 l 603 603 m 603 844 l 723 844 l 723 723 l 603 723 l 603 844 m 362 603 l 241 603 l 241 723 l 362 723 l 362 603 m 121 844 l 241 844 l 241 723 l 121 723 l 121 844 m 241 241 l 241 0 l 121 0 l 121 482 l 241 482 l 241 362 l 362 362 l 362 241 l 241 241 m 482 0 l 482 121 l 603 121 l 603 482 l 723 482 l 723 0 l 482 0 z "},"ň":{"ha":844,"x_min":121,"x_max":723,"o":"m 603 603 l 482 603 l 482 723 l 603 723 l 603 603 m 603 844 l 723 844 l 723 723 l 603 723 l 603 844 m 362 603 l 241 603 l 241 723 l 362 723 l 362 603 m 121 844 l 241 844 l 241 723 l 121 723 l 121 844 m 603 0 l 603 362 l 723 362 l 723 0 l 603 0 m 362 482 l 362 603 l 482 603 l 482 482 l 603 482 l 603 362 l 241 362 l 241 0 l 121 0 l 121 482 l 362 482 z "},"Œ":{"ha":1085,"x_min":121,"x_max":965,"o":"m 241 723 l 241 121 l 121 121 l 121 723 l 241 723 m 482 121 l 482 723 l 241 723 l 240 844 l 965 844 l 965 723 l 603 723 l 603 482 l 844 482 l 844 362 l 603 362 l 603 121 l 965 121 l 965 0 l 241 0 l 241 121 l 482 121 z "},"œ":{"ha":1085,"x_min":121,"x_max":965,"o":"m 965 482 l 965 241 l 603 241 l 603 121 l 482 121 l 482 482 l 603 482 l 603 362 l 844 362 l 844 482 l 965 482 m 603 603 l 844 603 l 844 482 l 603 482 l 603 603 m 482 0 l 241 0 l 241 121 l 482 121 l 482 0 m 603 121 l 844 121 l 844 0 l 603 0 l 603 121 m 482 482 l 241 482 l 241 603 l 482 603 l 482 482 m 121 121 l 121 482 l 241 482 l 241 121 l 121 121 z "},"Ř":{"ha":844,"x_min":121,"x_max":723,"o":"m 603 482 l 241 482 l 241 241 l 603 241 l 603 121 l 241 121 l 241 0 l 121 0 l 121 603 l 362 603 l 362 723 l 482 723 l 482 603 l 603 603 l 603 482 m 603 121 l 723 121 l 723 0 l 603 0 l 603 121 m 362 723 l 241 723 l 241 844 l 362 844 l 362 723 m 482 723 l 482 844 l 603 844 l 603 723 l 482 723 m 603 241 l 603 482 l 723 482 l 723 241 l 603 241 z "},"ř":{"ha":844,"x_min":121,"x_max":723,"o":"m 603 603 l 482 603 l 482 723 l 603 723 l 603 603 m 603 844 l 723 844 l 723 723 l 603 723 l 603 844 m 362 603 l 241 603 l 241 723 l 362 723 l 362 603 m 121 844 l 241 844 l 241 723 l 121 723 l 121 844 m 603 121 l 603 362 l 723 362 l 723 121 l 603 121 m 362 482 l 362 603 l 482 603 l 482 482 l 603 482 l 603 362 l 241 362 l 241 0 l 121 0 l 121 482 l 362 482 z "},"Š":{"ha":844,"x_min":121,"x_max":723,"o":"m 603 121 l 603 241 l 723 241 l 723 121 l 603 121 m 362 723 l 241 723 l 241 844 l 362 844 l 362 723 m 482 723 l 482 844 l 603 844 l 603 723 l 482 723 m 241 362 l 121 362 l 121 482 l 241 482 l 241 362 m 603 241 l 241 241 l 241 362 l 603 362 l 603 241 m 603 121 l 603 0 l 121 0 l 121 121 l 603 121 m 482 603 l 723 603 l 723 482 l 241 482 l 241 603 l 362 603 l 362 723 l 482 723 l 482 603 z "},"š":{"ha":844,"x_min":121,"x_max":723,"o":"m 603 121 l 603 241 l 723 241 l 723 121 l 603 121 m 362 723 l 241 723 l 241 844 l 362 844 l 362 723 m 482 723 l 482 844 l 603 844 l 603 723 l 482 723 m 241 362 l 121 362 l 121 482 l 241 482 l 241 362 m 603 241 l 241 241 l 241 362 l 603 362 l 603 241 m 603 121 l 603 0 l 121 0 l 121 121 l 603 121 m 482 603 l 723 603 l 723 482 l 241 482 l 241 603 l 362 603 l 362 723 l 482 723 l 482 603 z "},"Ť":{"ha":844,"x_min":121,"x_max":723,"o":"m 482 723 l 603 723 l 603 603 l 723 603 l 723 482 l 482 482 l 482 0 l 362 0 l 362 482 l 121 482 l 121 603 l 241 603 l 241 723 l 362 723 l 362 603 l 482 603 l 482 723 m 241 723 l 121 723 l 121 844 l 241 844 l 241 723 m 603 723 l 603 844 l 723 844 l 723 723 l 603 723 z "},"ť":{"ha":1085,"x_min":121,"x_max":965,"o":"m 844 603 l 965 603 l 965 844 l 844 844 l 844 603 m 844 603 l 844 482 l 723 482 l 723 603 l 844 603 m 362 121 l 241 121 l 241 482 l 121 482 l 121 603 l 241 603 l 241 844 l 362 844 l 362 603 l 603 603 l 603 482 l 362 482 l 362 121 m 362 121 l 603 121 l 603 0 l 362 0 l 362 121 z "},"Ů":{"ha":844,"x_min":121,"x_max":723,"o":"m 241 121 l 121 121 l 121 603 l 241 603 l 241 121 m 603 603 l 723 603 l 723 121 l 603 121 l 603 603 m 362 603 l 241 603 l 241 723 l 362 723 l 362 603 m 362 723 l 362 844 l 482 844 l 482 723 l 362 723 m 482 603 l 482 723 l 603 723 l 603 603 l 482 603 m 362 482 l 362 603 l 482 603 l 482 482 l 362 482 m 241 0 l 241 121 l 603 121 l 603 0 l 241 0 z "},"ů":{"ha":844,"x_min":121,"x_max":723,"o":"m 241 121 l 121 121 l 121 603 l 241 603 l 241 121 m 362 482 l 362 603 l 482 603 l 482 482 l 362 482 m 482 603 l 482 723 l 603 723 l 603 603 l 482 603 m 362 723 l 362 844 l 482 844 l 482 723 l 362 723 m 362 603 l 241 603 l 241 723 l 362 723 l 362 603 m 723 0 l 241 0 l 241 121 l 603 121 l 603 603 l 723 603 l 723 0 z "},"Ÿ":{"ha":844,"x_min":121,"x_max":723,"o":"m 482 0 l 362 0 l 362 241 l 482 241 l 482 0 m 603 241 l 482 241 l 482 362 l 603 362 l 603 241 m 362 241 l 241 241 l 241 362 l 362 362 l 362 241 m 241 362 l 121 362 l 121 603 l 241 603 l 241 362 m 723 362 l 603 362 l 603 603 l 723 603 l 723 362 m 603 723 l 603 844 l 723 844 l 723 723 l 603 723 m 121 723 l 121 844 l 241 844 l 241 723 l 121 723 z "},"Ž":{"ha":844,"x_min":121,"x_max":723,"o":"m 482 241 l 362 241 l 362 362 l 482 362 l 482 241 m 603 723 l 603 844 l 723 844 l 723 723 l 603 723 m 241 723 l 121 723 l 121 844 l 241 844 l 241 723 m 241 121 l 241 241 l 362 241 l 362 121 l 723 121 l 723 0 l 121 0 l 121 121 l 241 121 m 482 723 l 603 723 l 603 603 l 723 603 l 723 482 l 603 482 l 603 362 l 482 362 l 482 482 l 121 482 l 121 603 l 241 603 l 241 723 l 362 723 l 362 603 l 482 603 l 482 723 z "},"ž":{"ha":844,"x_min":121,"x_max":723,"o":"m 482 241 l 362 241 l 362 362 l 482 362 l 482 241 m 603 723 l 603 844 l 723 844 l 723 723 l 603 723 m 241 723 l 121 723 l 121 844 l 241 844 l 241 723 m 241 121 l 241 241 l 362 241 l 362 121 l 723 121 l 723 0 l 121 0 l 121 121 l 241 121 m 482 723 l 603 723 l 603 603 l 723 603 l 723 482 l 603 482 l 603 362 l 482 362 l 482 482 l 121 482 l 121 603 l 241 603 l 241 723 l 362 723 l 362 603 l 482 603 l 482 723 z "},"ƒ":{"ha":723,"x_min":0,"x_max":603,"o":"m 241 0 l 241 482 l 121 482 l 121 603 l 241 603 l 241 723 l 362 723 l 362 603 l 603 603 l 603 482 l 362 482 l 362 0 l 241 0 m 241 0 l 241 -121 l 0 -121 l 0 0 l 241 0 m 362 723 l 362 844 l 603 844 l 603 723 l 362 723 z "},"ˆ":{"ha":844,"x_min":121,"x_max":723,"o":"m 241 482 l 121 482 l 121 603 l 241 603 l 241 482 m 603 603 l 723 603 l 723 482 l 603 482 l 603 603 m 482 723 l 603 723 l 603 603 l 482 603 l 482 723 m 362 844 l 482 844 l 482 723 l 362 723 l 362 844 m 241 723 l 362 723 l 362 603 l 241 603 l 241 723 z "},"ˇ":{"ha":844,"x_min":121,"x_max":723,"o":"m 241 723 l 121 723 l 121 844 l 241 844 l 241 723 m 603 844 l 723 844 l 723 723 l 603 723 l 603 844 m 482 723 l 603 723 l 603 603 l 482 603 l 482 723 m 362 603 l 482 603 l 482 482 l 362 482 l 362 603 m 241 723 l 362 723 l 362 603 l 241 603 l 241 723 z "},"˘":{"ha":844,"x_min":121,"x_max":723,"o":"m 603 723 l 603 603 l 241 603 l 241 723 l 603 723 m 241 723 l 121 723 l 121 844 l 241 844 l 241 723 m 603 723 l 603 844 l 723 844 l 723 723 l 603 723 z "},"˙":{"ha":362,"x_min":121,"x_max":241,"o":"m 241 723 l 121 723 l 121 844 l 241 844 l 241 723 z "},"˚":{"ha":603,"x_min":121,"x_max":482,"o":"m 241 723 l 241 844 l 362 844 l 362 723 l 241 723 m 241 482 l 241 603 l 362 603 l 362 482 l 241 482 m 362 723 l 482 723 l 482 603 l 362 603 l 362 723 m 241 603 l 121 603 l 121 723 l 241 723 l 241 603 z "},"˛":{"ha":723,"x_min":121,"x_max":603,"o":"m 121 0 l 121 121 l 241 121 l 241 0 l 121 0 m 603 0 l 603 -121 l 241 -121 l 241 0 l 603 0 m 241 241 l 362 241 l 362 121 l 241 121 l 241 241 z "},"˜":{"ha":965,"x_min":121,"x_max":844,"o":"m 723 723 l 723 603 l 482 603 l 482 723 l 723 723 m 723 723 l 723 844 l 844 844 l 844 723 l 723 723 m 482 723 l 241 723 l 241 844 l 482 844 l 482 723 m 241 723 l 241 603 l 121 603 l 121 723 l 241 723 z "},"˝":{"ha":844,"x_min":121,"x_max":723,"o":"m 241 603 l 121 603 l 121 723 l 241 723 l 241 603 m 603 844 l 723 844 l 723 723 l 603 723 l 603 844 m 603 603 l 482 603 l 482 723 l 603 723 l 603 603 m 241 844 l 362 844 l 362 723 l 241 723 l 241 844 z "},"–":{"ha":723,"x_min":121,"x_max":603,"o":"m 121 362 l 121 482 l 603 482 l 603 362 l 121 362 z "},"—":{"ha":1206,"x_min":121,"x_max":1085,"o":"m 121 362 l 121 482 l 1085 482 l 1085 362 l 121 362 z "},"‘":{"ha":482,"x_min":121,"x_max":362,"o":"m 241 723 l 241 844 l 362 844 l 362 723 l 241 723 m 241 723 l 241 482 l 121 482 l 121 723 l 241 723 z "},"’":{"ha":482,"x_min":121,"x_max":362,"o":"m 241 603 l 241 482 l 121 482 l 121 603 l 241 603 m 241 603 l 241 844 l 362 844 l 362 603 l 241 603 z "},"‚":{"ha":482,"x_min":121,"x_max":362,"o":"m 241 0 l 241 -121 l 121 -121 l 121 0 l 241 0 m 241 0 l 241 241 l 362 241 l 362 0 l 241 0 z "},"“":{"ha":844,"x_min":121,"x_max":723,"o":"m 241 723 l 241 844 l 362 844 l 362 723 l 241 723 m 241 723 l 241 482 l 121 482 l 121 723 l 241 723 m 603 723 l 603 844 l 723 844 l 723 723 l 603 723 m 603 723 l 603 482 l 482 482 l 482 723 l 603 723 z "},"”":{"ha":844,"x_min":121,"x_max":723,"o":"m 603 603 l 603 482 l 482 482 l 482 603 l 603 603 m 603 603 l 603 844 l 723 844 l 723 603 l 603 603 m 241 603 l 241 482 l 121 482 l 121 603 l 241 603 m 241 603 l 241 844 l 362 844 l 362 603 l 241 603 z "},"„":{"ha":844,"x_min":121,"x_max":723,"o":"m 603 0 l 603 -121 l 482 -121 l 482 0 l 603 0 m 241 0 l 241 241 l 362 241 l 362 0 l 241 0 m 241 0 l 241 -121 l 121 -121 l 121 0 l 241 0 m 603 0 l 603 241 l 723 241 l 723 0 l 603 0 z "},"†":{"ha":844,"x_min":121,"x_max":723,"o":"m 482 -121 l 362 -121 l 362 482 l 121 482 l 121 603 l 362 603 l 362 844 l 482 844 l 482 603 l 723 603 l 723 482 l 482 482 l 482 -121 z "},"‡":{"ha":844,"x_min":121,"x_max":723,"o":"m 482 603 l 723 603 l 723 482 l 482 482 l 482 241 l 723 241 l 723 121 l 482 121 l 482 -121 l 362 -121 l 362 121 l 121 121 l 121 241 l 362 241 l 362 482 l 121 482 l 121 603 l 362 603 l 362 844 l 482 844 l 482 603 z "},"•":{"ha":723,"x_min":121,"x_max":603,"o":"m 482 482 l 603 482 l 603 241 l 482 241 l 482 121 l 241 121 l 241 241 l 121 241 l 121 482 l 241 482 l 241 603 l 482 603 l 482 482 z "},"…":{"ha":1085,"x_min":121,"x_max":965,"o":"m 241 0 l 121 0 l 121 121 l 241 121 l 241 0 m 603 0 l 482 0 l 482 121 l 603 121 l 603 0 m 965 0 l 844 0 l 844 121 l 965 121 l 965 0 z "},"‰":{"ha":1206,"x_min":121,"x_max":1085,"o":"m 241 121 l 241 241 l 362 241 l 362 121 l 241 121 m 1085 0 l 844 0 l 844 241 l 1085 241 l 1085 0 m 241 121 l 241 0 l 121 0 l 121 121 l 241 121 m 362 241 l 362 362 l 482 362 l 482 241 l 362 241 m 723 603 l 723 482 l 603 482 l 603 603 l 723 603 m 723 603 l 723 723 l 844 723 l 844 603 l 723 603 m 603 482 l 603 362 l 482 362 l 482 482 l 603 482 m 723 0 l 482 0 l 482 241 l 723 241 l 723 0 m 362 482 l 121 482 l 121 723 l 362 723 l 362 482 z "},"‹":{"ha":603,"x_min":121,"x_max":482,"o":"m 362 603 l 362 482 l 241 482 l 241 603 l 362 603 m 362 603 l 362 723 l 482 723 l 482 603 l 362 603 m 241 482 l 241 362 l 121 362 l 121 482 l 241 482 m 241 362 l 362 362 l 362 241 l 241 241 l 241 362 m 362 241 l 482 241 l 482 121 l 362 121 l 362 241 z "},"›":{"ha":603,"x_min":121,"x_max":482,"o":"m 362 603 l 362 482 l 241 482 l 241 603 l 362 603 m 121 603 l 121 723 l 241 723 l 241 603 l 121 603 m 482 482 l 482 362 l 362 362 l 362 482 l 482 482 m 362 241 l 241 241 l 241 362 l 362 362 l 362 241 m 241 121 l 121 121 l 121 241 l 241 241 l 241 121 z "},"€":{"ha":965,"x_min":121,"x_max":844,"o":"m 723 723 l 362 723 l 362 844 l 723 844 l 723 723 m 723 723 l 844 723 l 844 482 l 723 482 l 723 723 m 723 121 l 723 0 l 362 0 l 362 121 l 723 121 m 723 121 l 723 362 l 844 362 l 844 121 l 723 121 m 362 121 l 241 121 l 241 241 l 121 241 l 121 362 l 241 362 l 241 482 l 121 482 l 121 603 l 241 603 l 241 723 l 362 723 l 362 603 l 603 603 l 603 482 l 362 482 l 362 362 l 603 362 l 603 241 l 362 241 l 362 121 z "},"™":{"ha":1326,"x_min":121,"x_max":1206,"o":"m 241 723 l 121 723 l 121 844 l 482 844 l 482 723 l 362 723 l 362 362 l 241 362 l 241 723 m 844 482 l 844 603 l 965 603 l 965 482 l 844 482 m 1085 723 l 1085 844 l 1206 844 l 1206 362 l 1085 362 l 1085 603 l 965 603 l 965 723 l 1085 723 m 723 723 l 844 723 l 844 603 l 723 603 l 723 362 l 603 362 l 603 844 l 723 844 l 723 723 z "},"":{"ha":1206,"x_min":121,"x_max":1085,"o":"m 482 -121 l 241 -121 l 241 0 l 482 0 l 482 -121 m 362 121 l 241 121 l 241 241 l 362 241 l 362 121 m 241 241 l 121 241 l 121 603 l 241 603 l 241 241 m 482 603 l 241 603 l 241 723 l 482 723 l 482 603 m 482 0 l 482 603 l 603 603 l 603 0 l 482 0 m 844 362 l 723 362 l 723 723 l 844 723 l 844 362 m 1085 723 l 844 723 l 844 844 l 1085 844 l 1085 723 m 1085 241 l 844 241 l 844 362 l 1085 362 l 1085 241 z "}}}
